<svg version="1.1" xmlns="http://www.w3.org/2000/svg" xmlns:xlink="http://www.w3.org/1999/xlink" role="img" width="271" height="74" viewbox="0 0 271 74"><title>nznd.org</title><desc>Generated by logo.svg, https://github.com/bubkoo/logo.svg</desc><path fill="#fc174f" d="M31.46 54.99Q31.46 56.00 30.45 56.00Q29.51 56.00 29.51 54.99L29.51 38Q29.51 35.84 28.65 33.93Q27.78 32.02 26.34 30.58Q24.90 29.14 23.00 28.32Q21.09 27.49 19.00 27.49L13.46 27.49Q11.37 27.49 9.46 28.32Q7.55 29.14 6.15 30.55Q4.74 31.95 3.88 33.82Q3.02 35.70 2.94 37.78L2.94 54.99Q2.94 56.00 2.01 56.00Q1 56.00 1 54.99L1 37.86Q1.07 35.34 2.08 33.10Q3.09 30.87 4.74 29.18Q6.40 27.49 8.67 26.52Q10.94 25.54 13.46 25.54L19.00 25.54Q21.52 25.54 23.79 26.55Q26.06 27.56 27.75 29.22Q29.44 30.87 30.45 33.14Q31.46 35.41 31.46 37.86L31.46 37.93L31.46 54.99Z"></path><path fill="black" d="M65.15 31.09Q65.15 30.94 65.19 30.80Q65.22 30.66 65.22 30.51Q65.22 29.07 64.11 28.10Q62.99 27.13 61.77 27.13L41.10 27.13Q40.24 27.13 40.24 26.26Q40.24 25.40 41.10 25.40L61.77 25.40Q63.78 25.40 65.37 26.88Q66.95 28.35 66.95 30.66Q66.95 31.59 66.66 32.38L66.59 32.60Q65.94 34.18 64.36 35.12L43.05 47.65Q42.26 48.15 41.79 48.98Q41.32 49.81 41.32 50.67Q41.32 52.18 42.40 53.16Q43.48 54.13 44.85 54.13L66.30 54.13Q67.17 54.13 67.17 54.99Q67.17 55.86 66.30 55.86L44.85 55.86Q42.62 55.86 41.10 54.31Q39.59 52.76 39.59 50.53Q39.59 49.16 40.28 48.01Q40.96 46.86 42.18 46.14L63.50 33.61Q64.50 33.03 64.94 31.95L65.30 31.09L65.15 31.09Z"></path><path fill="#fc174f" d="M104.61 54.99Q104.61 56.00 103.60 56.00Q102.66 56.00 102.66 54.99L102.66 38Q102.66 35.84 101.80 33.93Q100.94 32.02 99.50 30.58Q98.06 29.14 96.15 28.32Q94.24 27.49 92.15 27.49L86.61 27.49Q84.52 27.49 82.61 28.32Q80.70 29.14 79.30 30.55Q77.90 31.95 77.03 33.82Q76.17 35.70 76.10 37.78L76.10 54.99Q76.10 56.00 75.16 56.00Q74.15 56.00 74.15 54.99L74.15 37.86Q74.22 35.34 75.23 33.10Q76.24 30.87 77.90 29.18Q79.55 27.49 81.82 26.52Q84.09 25.54 86.61 25.54L92.15 25.54Q94.67 25.54 96.94 26.55Q99.21 27.56 100.90 29.22Q102.59 30.87 103.60 33.14Q104.61 35.41 104.61 37.86L104.61 37.93L104.61 54.99Z"></path><path fill="black" d="M142.41 43.69Q142.41 46.21 141.44 48.48Q140.46 50.74 138.77 52.40Q137.08 54.06 134.85 55.03Q132.62 56.00 130.10 56.00L124.70 56.00Q122.18 56.00 119.91 55.03Q117.64 54.06 115.98 52.40Q114.33 50.74 113.36 48.48Q112.38 46.21 112.38 43.69L112.38 37.71Q112.38 35.19 113.36 32.96Q114.33 30.73 115.98 29.04Q117.64 27.34 119.91 26.37Q122.18 25.40 124.70 25.40L130.10 25.40Q132.54 25.40 134.85 26.34Q137.15 27.27 138.81 29.00L140.46 30.73L140.46 16.18Q140.46 15.18 141.47 15.18Q142.41 15.18 142.41 16.18L142.41 43.69M140.46 37.50Q140.46 35.41 139.60 33.57Q138.74 31.74 137.33 30.33Q135.93 28.93 134.02 28.14Q132.11 27.34 130.10 27.34L124.70 27.34Q122.54 27.34 120.66 28.17Q118.79 29.00 117.39 30.40Q115.98 31.81 115.16 33.68Q114.33 35.55 114.33 37.71L114.33 43.69Q114.33 45.85 115.16 47.72Q115.98 49.59 117.39 51.00Q118.79 52.40 120.66 53.23Q122.54 54.06 124.70 54.06L130.10 54.06Q132.26 54.06 134.13 53.23Q136.00 52.40 137.40 51.00Q138.81 49.59 139.64 47.72Q140.46 45.85 140.46 43.69L140.46 39.51L140.46 37.50Z"></path><path fill="black" d="M152.92 52.11Q153.71 52.11 154.29 52.69Q154.86 53.26 154.86 54.06Q154.86 54.85 154.29 55.42Q153.71 56.00 152.92 56.00Q152.13 56.00 151.55 55.42Q150.98 54.85 150.98 54.06Q150.98 53.26 151.55 52.69Q152.13 52.11 152.92 52.11Z"></path><path fill="black" d="M182.58 25.54Q185.10 25.54 187.37 26.55Q189.64 27.56 191.33 29.25Q193.02 30.94 194.03 33.21Q195.04 35.48 195.04 38L195.04 43.54Q195.04 46.06 194.03 48.33Q193.02 50.60 191.33 52.29Q189.64 53.98 187.37 54.99Q185.10 56.00 182.58 56.00L177.04 56.00Q174.52 56.00 172.25 54.99Q169.98 53.98 168.29 52.29Q166.60 50.60 165.59 48.33Q164.58 46.06 164.58 43.54L164.58 38Q164.58 35.48 165.59 33.21Q166.60 30.94 168.29 29.25Q169.98 27.56 172.25 26.55Q174.52 25.54 177.04 25.54L182.58 25.54M177.04 27.49Q174.95 27.49 173.04 28.32Q171.14 29.14 169.70 30.55Q168.26 31.95 167.39 33.90Q166.53 35.84 166.53 38L166.53 43.54Q166.53 45.63 167.36 47.54Q168.18 49.45 169.62 50.89Q171.06 52.33 172.97 53.19Q174.88 54.06 177.04 54.06L182.58 54.06Q184.74 54.06 186.65 53.23Q188.56 52.40 190.00 50.96Q191.44 49.52 192.27 47.61Q193.10 45.70 193.10 43.54L193.10 38Q193.10 35.84 192.23 33.93Q191.37 32.02 189.93 30.58Q188.49 29.14 186.58 28.32Q184.67 27.49 182.58 27.49L177.04 27.49Z"></path><path fill="black" d="M202.46 37.86Q202.53 35.34 203.54 33.10Q204.54 30.87 206.20 29.18Q207.86 27.49 210.12 26.52Q212.39 25.54 214.91 25.54L218.80 25.54Q221.32 25.54 223.59 26.48Q225.86 27.42 227.58 29.22Q227.87 29.43 227.87 29.86Q227.87 30.87 226.94 30.87Q226.50 30.87 226.22 30.58Q224.70 29.14 222.80 28.32Q220.89 27.49 218.80 27.49L214.91 27.49Q212.82 27.49 210.95 28.32Q209.08 29.14 207.64 30.55Q206.20 31.95 205.34 33.82Q204.47 35.70 204.40 37.78L204.40 54.99Q204.40 56.00 203.46 56.00Q202.46 56.00 202.46 54.99L202.46 37.93L202.46 37.86Z"></path><path fill="black" d="M247.53 49.95Q246.74 49.95 246.05 50.31Q245.37 50.67 245.37 51.68Q245.37 52.47 245.87 52.98Q246.38 53.48 247.10 53.48Q249.04 53.48 250.77 54.24Q252.50 54.99 253.79 56.25Q255.09 57.51 255.84 59.24Q256.60 60.97 256.60 62.91Q256.60 64.86 255.84 66.58Q255.09 68.31 253.79 69.61Q252.50 70.90 250.77 71.66Q249.04 72.42 247.10 72.42Q245.15 72.42 243.42 71.66Q241.70 70.90 240.40 69.61Q239.10 68.31 238.35 66.58Q237.59 64.86 237.59 62.91Q237.59 61.98 238.60 61.98Q239.54 61.98 239.54 62.91Q239.54 64.50 240.11 65.86Q240.69 67.23 241.73 68.28Q242.78 69.32 244.14 69.90Q245.51 70.47 247.10 70.47Q248.68 70.47 250.05 69.90Q251.42 69.32 252.42 68.28Q253.43 67.23 254.04 65.86Q254.66 64.50 254.66 62.91Q254.66 61.33 254.04 59.96Q253.43 58.59 252.42 57.58Q251.42 56.58 250.05 55.96Q248.68 55.35 247.10 55.35Q245.58 55.35 244.50 54.31Q243.42 53.26 243.42 51.68Q243.42 51.10 243.57 50.74Q243.71 50.38 243.93 50.02L242.78 49.88Q240.54 49.59 238.60 48.51Q236.66 47.43 235.25 45.81Q233.85 44.19 233.02 42.10Q232.19 40.02 232.19 37.78Q232.19 35.26 233.16 33.03Q234.14 30.80 235.83 29.14Q237.52 27.49 239.72 26.52Q241.91 25.54 244.43 25.54L249.83 25.54Q252.28 25.54 254.51 26.52Q256.74 27.49 258.40 29.14Q260.06 30.80 261.03 33.03Q262.00 35.26 262.00 37.78Q262.00 40.23 261.06 42.46Q260.13 44.70 258.47 46.35Q256.17 48.66 253.54 49.30Q250.91 49.95 247.53 49.95M244.43 27.49Q242.34 27.49 240.47 28.28Q238.60 29.07 237.20 30.48Q235.79 31.88 234.96 33.75Q234.14 35.62 234.14 37.78Q234.14 39.87 234.96 41.74Q235.79 43.62 237.20 45.02Q238.60 46.42 240.47 47.22Q242.34 48.01 244.43 48.01L249.83 48.01Q251.85 48.01 253.72 47.22Q255.59 46.42 257.03 45.02Q258.47 43.62 259.30 41.78Q260.13 39.94 260.13 37.78Q260.13 35.62 259.30 33.75Q258.47 31.88 257.03 30.48Q255.59 29.07 253.72 28.28Q251.85 27.49 249.83 27.49L244.43 27.49Z"></path></svg>