<svg version="1.1" xmlns="http://www.w3.org/2000/svg" xmlns:xlink="http://www.w3.org/1999/xlink" role="img" width="152" height="74" viewbox="0 0 152 74"><title>nznd</title><desc>Generated by logo.svg, https://github.com/bubkoo/logo.svg</desc><path fill="#fc174f" d="M31.46 54.99Q31.46 56.00 30.45 56.00Q29.51 56.00 29.51 54.99L29.51 38Q29.51 35.84 28.65 33.93Q27.78 32.02 26.34 30.58Q24.90 29.14 23.00 28.32Q21.09 27.49 19.00 27.49L13.46 27.49Q11.37 27.49 9.46 28.32Q7.55 29.14 6.15 30.55Q4.74 31.95 3.88 33.82Q3.02 35.70 2.94 37.78L2.94 54.99Q2.94 56.00 2.01 56.00Q1 56.00 1 54.99L1 37.86Q1.07 35.34 2.08 33.10Q3.09 30.87 4.74 29.18Q6.40 27.49 8.67 26.52Q10.94 25.54 13.46 25.54L19.00 25.54Q21.52 25.54 23.79 26.55Q26.06 27.56 27.75 29.22Q29.44 30.87 30.45 33.14Q31.46 35.41 31.46 37.86L31.46 37.93L31.46 54.99Z"></path><path fill="#888" d="M65.15 31.09Q65.15 30.94 65.19 30.80Q65.22 30.66 65.22 30.51Q65.22 29.07 64.11 28.10Q62.99 27.13 61.77 27.13L41.10 27.13Q40.24 27.13 40.24 26.26Q40.24 25.40 41.10 25.40L61.77 25.40Q63.78 25.40 65.37 26.88Q66.95 28.35 66.95 30.66Q66.95 31.59 66.66 32.38L66.59 32.60Q65.94 34.18 64.36 35.12L43.05 47.65Q42.26 48.15 41.79 48.98Q41.32 49.81 41.32 50.67Q41.32 52.18 42.40 53.16Q43.48 54.13 44.85 54.13L66.30 54.13Q67.17 54.13 67.17 54.99Q67.17 55.86 66.30 55.86L44.85 55.86Q42.62 55.86 41.10 54.31Q39.59 52.76 39.59 50.53Q39.59 49.16 40.28 48.01Q40.96 46.86 42.18 46.14L63.50 33.61Q64.50 33.03 64.94 31.95L65.30 31.09L65.15 31.09Z"></path><path fill="#fc174f" d="M104.61 54.99Q104.61 56.00 103.60 56.00Q102.66 56.00 102.66 54.99L102.66 38Q102.66 35.84 101.80 33.93Q100.94 32.02 99.50 30.58Q98.06 29.14 96.15 28.32Q94.24 27.49 92.15 27.49L86.61 27.49Q84.52 27.49 82.61 28.32Q80.70 29.14 79.30 30.55Q77.90 31.95 77.03 33.82Q76.17 35.70 76.10 37.78L76.10 54.99Q76.10 56.00 75.16 56.00Q74.15 56.00 74.15 54.99L74.15 37.86Q74.22 35.34 75.23 33.10Q76.24 30.87 77.90 29.18Q79.55 27.49 81.82 26.52Q84.09 25.54 86.61 25.54L92.15 25.54Q94.67 25.54 96.94 26.55Q99.21 27.56 100.90 29.22Q102.59 30.87 103.60 33.14Q104.61 35.41 104.61 37.86L104.61 37.93L104.61 54.99Z"></path><path fill="#888" d="M142.41 43.69Q142.41 46.21 141.44 48.48Q140.46 50.74 138.77 52.40Q137.08 54.06 134.85 55.03Q132.62 56.00 130.10 56.00L124.70 56.00Q122.18 56.00 119.91 55.03Q117.64 54.06 115.98 52.40Q114.33 50.74 113.36 48.48Q112.38 46.21 112.38 43.69L112.38 37.71Q112.38 35.19 113.36 32.96Q114.33 30.73 115.98 29.04Q117.64 27.34 119.91 26.37Q122.18 25.40 124.70 25.40L130.10 25.40Q132.54 25.40 134.85 26.34Q137.15 27.27 138.81 29.00L140.46 30.73L140.46 16.18Q140.46 15.18 141.47 15.18Q142.41 15.18 142.41 16.18L142.41 43.69M140.46 37.50Q140.46 35.41 139.60 33.57Q138.74 31.74 137.33 30.33Q135.93 28.93 134.02 28.14Q132.11 27.34 130.10 27.34L124.70 27.34Q122.54 27.34 120.66 28.17Q118.79 29.00 117.39 30.40Q115.98 31.81 115.16 33.68Q114.33 35.55 114.33 37.71L114.33 43.69Q114.33 45.85 115.16 47.72Q115.98 49.59 117.39 51.00Q118.79 52.40 120.66 53.23Q122.54 54.06 124.70 54.06L130.10 54.06Q132.26 54.06 134.13 53.23Q136.00 52.40 137.40 51.00Q138.81 49.59 139.64 47.72Q140.46 45.85 140.46 43.69L140.46 39.51L140.46 37.50Z"></path></svg>